name Walk6.mot
datacolumns 19
datarows 17
range 3.99200000 4.00800000
endheader

                time	   L_ground_force_vx	   L_ground_force_vy	   L_ground_force_vz	   L_ground_force_px	   L_ground_force_py	   L_ground_force_pz	   R_ground_force_vx	   R_ground_force_vy	   R_ground_force_vz	   R_ground_force_px	   R_ground_force_py	   R_ground_force_pz	   L_ground_torque_x	   L_ground_torque_y	   L_ground_torque_z	   R_ground_torque_x	   R_ground_torque_y	   R_ground_torque_z	
          3.99200000	         23.14636727	        996.32168919	         70.82277023	         -0.27855381	          0.00000000	         -0.10159632	          0.00000000	          0.00000000	          0.00000000	          0.00000000	          0.00000000	          0.00000000	          0.00000000	          0.63741928	          0.00000000	          0.00000000	          0.00000000	          0.00000000	
          3.99300000	         23.45508271	        996.70503449	         70.98456823	         -0.27813251	          0.00000000	         -0.10170066	          0.00000000	          0.00000000	          0.00000000	          0.00000000	          0.00000000	          0.00000000	          0.00000000	          0.65700864	          0.00000000	          0.00000000	          0.00000000	          0.00000000	
          3.99400000	         23.70365991	        997.06553656	         71.13564569	         -0.27771511	          0.00000000	         -0.10180219	          0.00000000	          0.00000000	          0.00000000	          0.00000000	          0.00000000	          0.00000000	          0.00000000	          0.67556783	          0.00000000	          0.00000000	          0.00000000	          0.00000000	
          3.99500000	         23.90572672	        997.38980059	         71.29867703	         -0.27731373	          0.00000000	         -0.10187476	          0.00000000	          0.00000000	          0.00000000	          0.00000000	          0.00000000	          0.00000000	          0.00000000	          0.69540081	          0.00000000	          0.00000000	          0.00000000	          0.00000000	
          3.99600000	         24.09326362	        997.69785041	         71.49341581	         -0.27693495	          0.00000000	         -0.10189736	          0.00000000	          0.00000000	          0.00000000	          0.00000000	          0.00000000	          0.00000000	          0.00000000	          0.71595819	          0.00000000	          0.00000000	          0.00000000	          0.00000000	
          3.99700000	         24.31668125	        998.04082262	         71.71068478	         -0.27657488	          0.00000000	         -0.10186346	          0.00000000	          0.00000000	          0.00000000	          0.00000000	          0.00000000	          0.00000000	          0.00000000	          0.73015728	          0.00000000	          0.00000000	          0.00000000	          0.00000000	
          3.99800000	         24.61863419	        998.46478601	         71.91561875	         -0.27622035	          0.00000000	         -0.10178765	          0.00000000	          0.00000000	          0.00000000	          0.00000000	          0.00000000	          0.00000000	          0.00000000	          0.73090117	          0.00000000	          0.00000000	          0.00000000	          0.00000000	
          3.99900000	         25.00355060	        998.98714775	         72.07655872	         -0.27585763	          0.00000000	         -0.10170153	          0.00000000	          0.00000000	          0.00000000	          0.00000000	          0.00000000	          0.00000000	          0.00000000	          0.71954532	          0.00000000	          0.00000000	          0.00000000	          0.00000000	
          4.00000000	         25.43249696	        999.58047638	         72.18462582	         -0.27548378	          0.00000000	         -0.10163502	          0.00000000	          0.00000000	          0.00000000	          0.00000000	          0.00000000	          0.00000000	          0.00000000	          0.70648807	          0.00000000	          0.00000000	          0.00000000	          0.00000000	
          4.00100000	         25.85438327	       1000.16819846	         72.25213432	         -0.27510370	          0.00000000	         -0.10160402	          0.00000000	          0.00000000	          0.00000000	          0.00000000	          0.00000000	          0.00000000	          0.00000000	          0.70349459	          0.00000000	          0.00000000	          0.00000000	          0.00000000	
          4.00200000	         26.23863528	       1000.66353012	         72.29917429	         -0.27471714	          0.00000000	         -0.10161484	          0.00000000	          0.00000000	          0.00000000	          0.00000000	          0.00000000	          0.00000000	          0.00000000	          0.71712734	          0.00000000	          0.00000000	          0.00000000	          0.00000000	
          4.00300000	         26.57647474	       1001.01552937	         72.34352218	         -0.27432169	          0.00000000	         -0.10166654	          0.00000000	          0.00000000	          0.00000000	          0.00000000	          0.00000000	          0.00000000	          0.00000000	          0.74808537	          0.00000000	          0.00000000	          0.00000000	          0.00000000	
          4.00400000	         26.86878079	       1001.22819474	         72.40109321	         -0.27392668	          0.00000000	         -0.10174670	          0.00000000	          0.00000000	          0.00000000	          0.00000000	          0.00000000	          0.00000000	          0.00000000	          0.79121788	          0.00000000	          0.00000000	          0.00000000	          0.00000000	
          4.00500000	         27.12808577	       1001.35903455	         72.48792952	         -0.27354966	          0.00000000	         -0.10183718	          0.00000000	          0.00000000	          0.00000000	          0.00000000	          0.00000000	          0.00000000	          0.00000000	          0.83638297	          0.00000000	          0.00000000	          0.00000000	          0.00000000	
          4.00600000	         27.38712047	       1001.48171530	         72.61670532	         -0.27319928	          0.00000000	         -0.10192322	          0.00000000	          0.00000000	          0.00000000	          0.00000000	          0.00000000	          0.00000000	          0.00000000	          0.87333956	          0.00000000	          0.00000000	          0.00000000	          0.00000000	
          4.00700000	         27.69507773	       1001.63383171	         72.78747057	         -0.27286754	          0.00000000	         -0.10199233	          0.00000000	          0.00000000	          0.00000000	          0.00000000	          0.00000000	          0.00000000	          0.00000000	          0.89479834	          0.00000000	          0.00000000	          0.00000000	          0.00000000	
          4.00800000	         28.10023142	       1001.80677159	         72.97704505	         -0.27253573	          0.00000000	         -0.10203256	          0.00000000	          0.00000000	          0.00000000	          0.00000000	          0.00000000	          0.00000000	          0.00000000	          0.89620733	          0.00000000	          0.00000000	          0.00000000	          0.00000000	
